<svg xmlns="http://www.w3.org/2000/svg" height="256px" viewBox="0 -960 960 960" width="256px" fill="#000000"><path d="M362.04-534.22q-45.67-45.79-45.67-117.92 0-72.12 45.63-117.84t117.91-45.72q72.29 0 118.12 45.72 45.84 45.72 45.84 117.84 0 72.13-45.8 117.92-45.8 45.79-118.08 45.79t-117.95-45.79ZM143.33-130v-110.62q0-41.65 20.6-71.97 20.61-30.33 53.79-45.71 68.76-32 133.09-47.38 64.34-15.39 129.08-15.39 65.22 0 128.93 16 63.7 16 132.46 46.77 34.24 15.1 54.94 45.45 20.69 30.35 20.69 72.18V-130H143.33Z"/></svg>